<svg xmlns="http://www.w3.org/2000/svg" viewBox="0 0 480 380" width="480" height="380">
  <defs>
    <linearGradient id="bg" x1="0%" y1="0%" x2="100%" y2="100%">
      <stop offset="0%" style="stop-color:#e8f4ff"/>
      <stop offset="100%" style="stop-color:#d0eaff"/>
    </linearGradient>
    <linearGradient id="accentGrad" x1="0%" y1="0%" x2="100%" y2="0%">
      <stop offset="0%" style="stop-color:#0057D9"/>
      <stop offset="100%" style="stop-color:#00B4D8"/>
    </linearGradient>
  </defs>
  <rect width="480" height="380" rx="24" fill="url(#bg)"/>
  <!-- Map outline of Bangladesh (simplified) -->
  <path d="M180 60 Q240 50 290 70 Q330 90 340 140 Q360 180 330 220 Q310 250 290 260 Q270 270 250 280 Q230 290 210 270 Q190 260 180 240 Q160 210 170 180 Q165 150 170 120 Q172 90 180 60Z"
    fill="white" stroke="#b8d9f5" stroke-width="2" opacity="0.7"/>
  <!-- Dhaka marker -->
  <circle cx="248" cy="185" r="10" fill="#0057D9" opacity="0.9"/>
  <circle cx="248" cy="185" r="18" fill="#0057D9" opacity="0.15"/>
  <circle cx="248" cy="185" r="26" fill="#0057D9" opacity="0.07"/>
  <text x="248" y="215" font-family="sans-serif" font-weight="700" font-size="11" fill="#0057D9" text-anchor="middle">Uttara, Dhaka</text>
  <!-- Info cards -->
  <rect x="24" y="60" width="130" height="56" rx="12" fill="white" stroke="#c8e0f5" stroke-width="1.5"/>
  <text x="40" y="84" font-family="sans-serif" font-size="9" fill="#6a9bbf">Founded</text>
  <text x="40" y="104" font-family="sans-serif" font-weight="700" font-size="16" fill="#0057D9">2010</text>
  <rect x="24" y="130" width="130" height="56" rx="12" fill="white" stroke="#c8e0f5" stroke-width="1.5"/>
  <text x="40" y="154" font-family="sans-serif" font-size="9" fill="#6a9bbf">Employees</text>
  <text x="40" y="174" font-family="sans-serif" font-weight="700" font-size="16" fill="#0057D9">200+</text>
  <rect x="24" y="200" width="130" height="56" rx="12" fill="white" stroke="#c8e0f5" stroke-width="1.5"/>
  <text x="40" y="224" font-family="sans-serif" font-size="9" fill="#6a9bbf">Clients Served</text>
  <text x="40" y="244" font-family="sans-serif" font-weight="700" font-size="16" fill="#0057D9">800+</text>
  <rect x="24" y="270" width="130" height="56" rx="12" fill="white" stroke="#c8e0f5" stroke-width="1.5"/>
  <text x="40" y="294" font-family="sans-serif" font-size="9" fill="#6a9bbf">Offices</text>
  <text x="40" y="314" font-family="sans-serif" font-weight="700" font-size="16" fill="#0057D9">5 Cities</text>
  <!-- Badge -->
  <rect x="330" y="60" width="128" height="48" rx="24" fill="#0057D9"/>
  <text x="394" y="80" font-family="sans-serif" font-weight="700" font-size="11" fill="white" text-anchor="middle">🏆 Best IT Firm</text>
  <text x="394" y="98" font-family="sans-serif" font-size="9" fill="rgba(255,255,255,0.8)" text-anchor="middle">Bangladesh 2024</text>
</svg>
